# xmcd CD database file
#
# Track frame offsets:
#	150
#	22907
#	38952
#	54225
#	69262
#	83655
#
# Disc length: 1417 seconds
#
# Revision: 0
# Processed by: cddbd v1.5.1PL0 Copyright (c) Steve Scherf et al.
# Submitted via: CDex 1.51
#
DISCID=3b058706
DTITLE=Soon - Million Years Gardener
DYEAR=1994
DGENRE=J-pop
TTITLE0=Sunflower
TTITLE1=Round Love
TTITLE2=Fine
TTITLE3=Water
TTITLE4=ヒヤシンスの丘
TTITLE5=Million Years Gardener(永遠の庭師)
EXTD=YEAR: 1994
EXTT0=
EXTT1=
EXTT2=
EXTT3=
EXTT4=
EXTT5=
PLAYORDER=
